<svg width="111" height="44" viewBox="0 0 111 44" fill="none" xmlns="http://www.w3.org/2000/svg">
<path d="M2.50422 17.2901C0.00667332 13.6825 -0.155205 5.1492 0.0760497 1.3335H6.66664C5.51042 3.8773 3.05924 10.6299 2.50422 17.2901Z" fill="#D9C2DE"/>
<path d="M2.39329 18.125C1.95328 16.7153 2.0253 15.4338 2.31942 14.5146C2.31942 15.6561 2.31942 16.8703 2.39329 18.125C3.33714 21.1489 6.63691 24.7628 15.1541 26.6555C27.6418 29.4306 35.8514 33.5932 38.3953 35.3276V43.9996C35.8515 42.8434 27.9195 39.4902 16.5417 35.3276C4.78253 31.0255 2.746 24.1149 2.39329 18.125Z" fill="#A664E3"/>
<path d="M78.7496 24.333C77.4163 23.7997 75.3052 19.4441 74.4163 17.333C61.8831 23.9997 57.8606 34.5552 57.416 38.9997C57.6383 39.7775 59.5496 41.8663 65.4163 43.9997C64.7496 35.6663 74.4163 26.6663 78.7496 24.333Z" fill="#71D3FB"/>
<path d="M84.4154 22.6708C81.4154 11.0042 69.082 3.3375 68.082 3.00417C70.7487 2.11528 76.9487 0.270833 80.4154 0.00416662C83.882 -0.2625 90.082 12.3375 92.7487 18.6708C90.5265 19.1153 85.7487 20.5375 84.4154 22.6708Z" fill="#41B572"/>
<path d="M105.082 25.3337L100.082 11.0003L105.082 8.66699C106.638 12.667 109.949 21.0003 110.749 22.3337C111.549 23.667 107.304 24.8892 105.082 25.3337Z" fill="#F3CA76"/>
<path d="M41.7493 23.0003L35.416 12.667L49.0827 15.667L41.7493 23.0003Z" fill="#FE8D98"/>
</svg>
