<svg width="20" height="20" viewBox="0 0 20 20" fill="none" xmlns="http://www.w3.org/2000/svg">
<rect width="20" height="20" fill="#E1E2E8"/>
<g clip-path="url(#clip0_2088_68682)">
<rect width="1440" height="1009" transform="translate(-967 -304)" fill="white"/>
<rect width="1440" height="370" transform="translate(-967 -244)" fill="url(#paint0_linear_2088_68682)"/>
<rect width="1440" height="370" transform="translate(-967 -244)" fill="url(#paint1_linear_2088_68682)"/>
<g filter="url(#filter0_d_2088_68682)">
<rect x="-32" y="-142" width="370" height="380" rx="12" fill="white"/>
<rect x="-31.5" y="-141.5" width="369" height="379" rx="11.5" stroke="#DFE2E8"/>
</g>
<rect x="-12" y="-6" width="101" height="32" rx="4" fill="#3AB67B"/>
<path fill-rule="evenodd" clip-rule="evenodd" d="M11.6667 3.75H3.33333C2.18274 3.75 1.25 4.68274 1.25 5.83333V14.1667C1.25 15.3173 2.18274 16.25 3.33333 16.25H11.6667C12.8173 16.25 13.75 15.3173 13.75 14.1667V5.83333C13.75 4.68274 12.8173 3.75 11.6667 3.75ZM3.33333 2.5C1.49238 2.5 0 3.99238 0 5.83333V14.1667C0 16.0076 1.49238 17.5 3.33333 17.5H11.6667C13.5076 17.5 15 16.0076 15 14.1667V5.83333C15 3.99238 13.5076 2.5 11.6667 2.5H3.33333Z" fill="white"/>
<path fill-rule="evenodd" clip-rule="evenodd" d="M17.0833 7.80696V12.193L18.75 13.393V6.60696L17.0833 7.80696ZM16.1797 6.91725C15.9622 7.07385 15.8333 7.32551 15.8333 7.59353V12.4065C15.8333 12.6745 15.9622 12.9261 16.1797 13.0828L18.6797 14.8828C19.231 15.2796 20 14.8857 20 14.2065V5.79353C20 5.11428 19.231 4.72036 18.6797 5.11725L16.1797 6.91725Z" fill="white"/>
</g>
<defs>
<filter id="filter0_d_2088_68682" x="-64" y="-168" width="434" height="444" filterUnits="userSpaceOnUse" color-interpolation-filters="sRGB">
<feFlood flood-opacity="0" result="BackgroundImageFix"/>
<feColorMatrix in="SourceAlpha" type="matrix" values="0 0 0 0 0 0 0 0 0 0 0 0 0 0 0 0 0 0 127 0" result="hardAlpha"/>
<feOffset dy="6"/>
<feGaussianBlur stdDeviation="16"/>
<feComposite in2="hardAlpha" operator="out"/>
<feColorMatrix type="matrix" values="0 0 0 0 0 0 0 0 0 0 0 0 0 0 0 0 0 0 0.06 0"/>
<feBlend mode="normal" in2="BackgroundImageFix" result="effect1_dropShadow_2088_68682"/>
<feBlend mode="normal" in="SourceGraphic" in2="effect1_dropShadow_2088_68682" result="shape"/>
</filter>
<linearGradient id="paint0_linear_2088_68682" x1="244.948" y1="-224.111" x2="-71.5877" y2="385.603" gradientUnits="userSpaceOnUse">
<stop stop-color="#F1F4FF"/>
<stop offset="1" stop-color="#FFCFCF" stop-opacity="0"/>
</linearGradient>
<linearGradient id="paint1_linear_2088_68682" x1="720" y1="-1.30942e-06" x2="701.589" y2="397.715" gradientUnits="userSpaceOnUse">
<stop offset="0.0163969" stop-color="white" stop-opacity="0"/>
<stop offset="1" stop-color="#F5F7FB"/>
</linearGradient>
<clipPath id="clip0_2088_68682">
<rect width="1440" height="1009" fill="white" transform="translate(-967 -304)"/>
</clipPath>
</defs>
</svg>
